General
      Complete name : The crystal method - Born too slow
      Format : MPEG-PS
      File size : 200 MiB
      Duration : 3mn 44s
      Overall bit rate : 7 455 Kbps
   Video #224
      ID : 224 (0xE0)
      Format : MPEG Video
      Format version : Version 2
      Format profile : Main@Main
      Format settings, Matrix : Default
      Duration : 3mn 44s
      Bit rate mode : Variable
      Bit rate : 5 623 Kbps
      Nominal bit rate : 7 800 Kbps
      Width : 720 pixels
      Height : 480 pixels
      Display aspect ratio : 4:3
      Frame rate : 29.970 fps
      Standard : NTSC
      Colorimetry : 4:2:0
      Scan type : Interlaced
      Scan order : Top Field First
      Bits/(Pixel*Frame) : 0.543
      Stream size : 151 MiB (75%)
   Audio #160
      ID : 160 (0xA0)
      Format : PCM
      Format settings, Endianness : Big
      Format settings, Sign : Signed
      Muxing mode : DVD-Video
      Duration : 3mn 44s
      Bit rate mode : Constant
      Bit rate : 1 536 Kbps
      Channel(s) : 2 channels
      Channel positions : Front: L R
      Sampling rate : 48.0 KHz
      Resolution : 16 bits
      Stream size : 41.1 MiB (21%)